<mxfile host="app.diagrams.net" agent="Mozilla/5.0 (Windows NT 10.0; Win64; x64) AppleWebKit/537.36 (KHTML, like Gecko) Chrome/129.0.0.0 Safari/537.36" version="26.0.11">
  <diagram name="Seite-1" id="5blD-hv_KY1dSjk4mWWa">
    <mxGraphModel dx="1495" dy="1275" grid="0" gridSize="10" guides="1" tooltips="1" connect="1" arrows="1" fold="1" page="0" pageScale="1" pageWidth="827" pageHeight="1169" math="0" shadow="0">
      <root>
        <mxCell id="0" />
        <mxCell id="1" parent="0" />
        <mxCell id="1gKeE4FAqKJYVwFzVaU8-18" value="" style="edgeStyle=none;curved=1;rounded=0;orthogonalLoop=1;jettySize=auto;html=1;fontSize=12;startSize=8;endSize=8;" parent="1" source="1gKeE4FAqKJYVwFzVaU8-2" target="1gKeE4FAqKJYVwFzVaU8-17" edge="1">
          <mxGeometry relative="1" as="geometry" />
        </mxCell>
        <mxCell id="1gKeE4FAqKJYVwFzVaU8-19" value="" style="edgeStyle=none;curved=1;rounded=0;orthogonalLoop=1;jettySize=auto;html=1;fontSize=12;startSize=8;endSize=8;" parent="1" source="1gKeE4FAqKJYVwFzVaU8-2" target="1gKeE4FAqKJYVwFzVaU8-17" edge="1">
          <mxGeometry relative="1" as="geometry" />
        </mxCell>
        <mxCell id="1gKeE4FAqKJYVwFzVaU8-22" value="" style="edgeStyle=none;curved=1;rounded=0;orthogonalLoop=1;jettySize=auto;html=1;fontSize=12;startSize=8;endSize=8;entryX=0;entryY=0.5;entryDx=0;entryDy=0;" parent="1" source="1gKeE4FAqKJYVwFzVaU8-2" target="1gKeE4FAqKJYVwFzVaU8-23" edge="1">
          <mxGeometry relative="1" as="geometry">
            <mxPoint x="174" y="200" as="targetPoint" />
          </mxGeometry>
        </mxCell>
        <mxCell id="1gKeE4FAqKJYVwFzVaU8-74" value="" style="edgeStyle=none;curved=1;rounded=0;orthogonalLoop=1;jettySize=auto;html=1;fontSize=12;startSize=8;endSize=8;" parent="1" source="1gKeE4FAqKJYVwFzVaU8-2" target="1gKeE4FAqKJYVwFzVaU8-73" edge="1">
          <mxGeometry relative="1" as="geometry" />
        </mxCell>
        <mxCell id="sSlGZCRm7KlqZrSvEMAD-30" style="edgeStyle=none;curved=1;rounded=0;orthogonalLoop=1;jettySize=auto;html=1;exitX=1;exitY=1;exitDx=0;exitDy=0;fontSize=12;startSize=8;endSize=8;" edge="1" parent="1" source="1gKeE4FAqKJYVwFzVaU8-2" target="sSlGZCRm7KlqZrSvEMAD-27">
          <mxGeometry relative="1" as="geometry">
            <mxPoint x="295" y="400" as="targetPoint" />
          </mxGeometry>
        </mxCell>
        <mxCell id="sSlGZCRm7KlqZrSvEMAD-32" value="1" style="edgeLabel;html=1;align=center;verticalAlign=middle;resizable=0;points=[];fontSize=12;" vertex="1" connectable="0" parent="sSlGZCRm7KlqZrSvEMAD-30">
          <mxGeometry x="0.213" y="-6" relative="1" as="geometry">
            <mxPoint x="1" as="offset" />
          </mxGeometry>
        </mxCell>
        <mxCell id="1gKeE4FAqKJYVwFzVaU8-2" value="Fach" style="whiteSpace=wrap;html=1;" parent="1" vertex="1">
          <mxGeometry x="-21" y="169" width="120" height="61" as="geometry" />
        </mxCell>
        <mxCell id="1gKeE4FAqKJYVwFzVaU8-32" style="edgeStyle=none;curved=1;rounded=0;orthogonalLoop=1;jettySize=auto;html=1;entryX=1;entryY=0.5;entryDx=0;entryDy=0;fontSize=12;startSize=8;endSize=8;" parent="1" source="1gKeE4FAqKJYVwFzVaU8-3" target="1gKeE4FAqKJYVwFzVaU8-23" edge="1">
          <mxGeometry relative="1" as="geometry" />
        </mxCell>
        <mxCell id="1gKeE4FAqKJYVwFzVaU8-35" value="" style="edgeStyle=none;curved=1;rounded=0;orthogonalLoop=1;jettySize=auto;html=1;fontSize=12;startSize=8;endSize=8;" parent="1" source="1gKeE4FAqKJYVwFzVaU8-3" target="1gKeE4FAqKJYVwFzVaU8-34" edge="1">
          <mxGeometry relative="1" as="geometry" />
        </mxCell>
        <mxCell id="1gKeE4FAqKJYVwFzVaU8-38" value="" style="edgeStyle=none;curved=1;rounded=0;orthogonalLoop=1;jettySize=auto;html=1;fontSize=12;startSize=8;endSize=8;" parent="1" source="1gKeE4FAqKJYVwFzVaU8-3" target="1gKeE4FAqKJYVwFzVaU8-37" edge="1">
          <mxGeometry relative="1" as="geometry" />
        </mxCell>
        <mxCell id="1gKeE4FAqKJYVwFzVaU8-41" value="" style="edgeStyle=none;curved=1;rounded=0;orthogonalLoop=1;jettySize=auto;html=1;fontSize=12;startSize=8;endSize=8;" parent="1" source="1gKeE4FAqKJYVwFzVaU8-3" target="1gKeE4FAqKJYVwFzVaU8-40" edge="1">
          <mxGeometry relative="1" as="geometry" />
        </mxCell>
        <mxCell id="1gKeE4FAqKJYVwFzVaU8-43" value="" style="edgeStyle=none;curved=1;rounded=0;orthogonalLoop=1;jettySize=auto;html=1;fontSize=12;startSize=8;endSize=8;" parent="1" source="1gKeE4FAqKJYVwFzVaU8-3" target="1gKeE4FAqKJYVwFzVaU8-42" edge="1">
          <mxGeometry relative="1" as="geometry" />
        </mxCell>
        <mxCell id="1gKeE4FAqKJYVwFzVaU8-3" value="Unterrichtsmaterialien" style="whiteSpace=wrap;html=1;" parent="1" vertex="1">
          <mxGeometry x="342" y="157" width="120" height="60" as="geometry" />
        </mxCell>
        <mxCell id="1gKeE4FAqKJYVwFzVaU8-8" value="" style="edgeStyle=none;curved=1;rounded=0;orthogonalLoop=1;jettySize=auto;html=1;fontSize=12;startSize=8;endSize=8;entryX=0;entryY=0.5;entryDx=0;entryDy=0;" parent="1" source="1gKeE4FAqKJYVwFzVaU8-5" target="1gKeE4FAqKJYVwFzVaU8-98" edge="1">
          <mxGeometry relative="1" as="geometry">
            <Array as="points">
              <mxPoint x="202" y="533" />
            </Array>
          </mxGeometry>
        </mxCell>
        <mxCell id="sSlGZCRm7KlqZrSvEMAD-34" value="1" style="edgeLabel;html=1;align=center;verticalAlign=middle;resizable=0;points=[];fontSize=12;" vertex="1" connectable="0" parent="1gKeE4FAqKJYVwFzVaU8-8">
          <mxGeometry x="-0.0815" y="-7" relative="1" as="geometry">
            <mxPoint as="offset" />
          </mxGeometry>
        </mxCell>
        <mxCell id="1gKeE4FAqKJYVwFzVaU8-50" style="edgeStyle=none;curved=1;rounded=0;orthogonalLoop=1;jettySize=auto;html=1;fontSize=12;startSize=8;endSize=8;entryX=0.5;entryY=1;entryDx=0;entryDy=0;exitX=0.25;exitY=0;exitDx=0;exitDy=0;" parent="1" source="1gKeE4FAqKJYVwFzVaU8-5" target="sSlGZCRm7KlqZrSvEMAD-11" edge="1">
          <mxGeometry relative="1" as="geometry">
            <mxPoint x="-53" y="548" as="sourcePoint" />
            <mxPoint x="66" y="338" as="targetPoint" />
          </mxGeometry>
        </mxCell>
        <mxCell id="sSlGZCRm7KlqZrSvEMAD-22" value="n&lt;div&gt;&lt;br&gt;&lt;/div&gt;" style="edgeLabel;html=1;align=center;verticalAlign=middle;resizable=0;points=[];fontSize=12;" vertex="1" connectable="0" parent="1gKeE4FAqKJYVwFzVaU8-50">
          <mxGeometry x="-0.3124" y="-1" relative="1" as="geometry">
            <mxPoint x="-1" as="offset" />
          </mxGeometry>
        </mxCell>
        <mxCell id="1gKeE4FAqKJYVwFzVaU8-52" value="" style="edgeStyle=none;curved=1;rounded=0;orthogonalLoop=1;jettySize=auto;html=1;fontSize=12;startSize=8;endSize=8;exitX=0.201;exitY=0.033;exitDx=0;exitDy=0;exitPerimeter=0;" parent="1" source="1gKeE4FAqKJYVwFzVaU8-5" target="1gKeE4FAqKJYVwFzVaU8-51" edge="1">
          <mxGeometry relative="1" as="geometry" />
        </mxCell>
        <mxCell id="1gKeE4FAqKJYVwFzVaU8-70" value="" style="edgeStyle=none;curved=1;rounded=0;orthogonalLoop=1;jettySize=auto;html=1;fontSize=12;startSize=8;endSize=8;" parent="1" source="1gKeE4FAqKJYVwFzVaU8-5" target="1gKeE4FAqKJYVwFzVaU8-69" edge="1">
          <mxGeometry relative="1" as="geometry" />
        </mxCell>
        <mxCell id="1gKeE4FAqKJYVwFzVaU8-90" style="edgeStyle=none;curved=1;rounded=0;orthogonalLoop=1;jettySize=auto;html=1;fontSize=12;startSize=8;endSize=8;" parent="1" source="1gKeE4FAqKJYVwFzVaU8-5" target="1gKeE4FAqKJYVwFzVaU8-91" edge="1">
          <mxGeometry relative="1" as="geometry">
            <mxPoint x="30.5" y="809.5" as="targetPoint" />
          </mxGeometry>
        </mxCell>
        <mxCell id="1gKeE4FAqKJYVwFzVaU8-92" value="" style="edgeStyle=none;curved=1;rounded=0;orthogonalLoop=1;jettySize=auto;html=1;fontSize=12;startSize=8;endSize=8;" parent="1" source="1gKeE4FAqKJYVwFzVaU8-5" target="1gKeE4FAqKJYVwFzVaU8-69" edge="1">
          <mxGeometry relative="1" as="geometry" />
        </mxCell>
        <mxCell id="1gKeE4FAqKJYVwFzVaU8-93" style="edgeStyle=none;curved=1;rounded=0;orthogonalLoop=1;jettySize=auto;html=1;fontSize=12;startSize=8;endSize=8;" parent="1" source="1gKeE4FAqKJYVwFzVaU8-5" target="1gKeE4FAqKJYVwFzVaU8-94" edge="1">
          <mxGeometry relative="1" as="geometry">
            <mxPoint x="-6.5" y="586.5" as="targetPoint" />
          </mxGeometry>
        </mxCell>
        <mxCell id="1gKeE4FAqKJYVwFzVaU8-5" value="PrÃ¼fungsvorbereitungen" style="whiteSpace=wrap;html=1;" parent="1" vertex="1">
          <mxGeometry x="-65.5" y="616.5" width="159" height="60" as="geometry" />
        </mxCell>
        <mxCell id="1gKeE4FAqKJYVwFzVaU8-78" value="" style="edgeStyle=none;curved=1;rounded=0;orthogonalLoop=1;jettySize=auto;html=1;fontSize=12;startSize=8;endSize=8;" parent="1" source="1gKeE4FAqKJYVwFzVaU8-7" target="1gKeE4FAqKJYVwFzVaU8-77" edge="1">
          <mxGeometry relative="1" as="geometry" />
        </mxCell>
        <mxCell id="1gKeE4FAqKJYVwFzVaU8-81" value="" style="edgeStyle=none;curved=1;rounded=0;orthogonalLoop=1;jettySize=auto;html=1;fontSize=12;startSize=8;endSize=8;" parent="1" source="1gKeE4FAqKJYVwFzVaU8-7" target="1gKeE4FAqKJYVwFzVaU8-80" edge="1">
          <mxGeometry relative="1" as="geometry" />
        </mxCell>
        <mxCell id="1gKeE4FAqKJYVwFzVaU8-82" value="" style="edgeStyle=none;curved=1;rounded=0;orthogonalLoop=1;jettySize=auto;html=1;fontSize=12;startSize=8;endSize=8;" parent="1" source="1gKeE4FAqKJYVwFzVaU8-7" target="1gKeE4FAqKJYVwFzVaU8-80" edge="1">
          <mxGeometry relative="1" as="geometry" />
        </mxCell>
        <mxCell id="1gKeE4FAqKJYVwFzVaU8-83" value="" style="edgeStyle=none;curved=1;rounded=0;orthogonalLoop=1;jettySize=auto;html=1;fontSize=12;startSize=8;endSize=8;" parent="1" source="1gKeE4FAqKJYVwFzVaU8-7" target="1gKeE4FAqKJYVwFzVaU8-80" edge="1">
          <mxGeometry relative="1" as="geometry" />
        </mxCell>
        <mxCell id="1gKeE4FAqKJYVwFzVaU8-85" value="" style="edgeStyle=none;curved=1;rounded=0;orthogonalLoop=1;jettySize=auto;html=1;fontSize=12;startSize=8;endSize=8;" parent="1" source="1gKeE4FAqKJYVwFzVaU8-7" target="1gKeE4FAqKJYVwFzVaU8-84" edge="1">
          <mxGeometry relative="1" as="geometry" />
        </mxCell>
        <mxCell id="1gKeE4FAqKJYVwFzVaU8-87" value="" style="edgeStyle=none;curved=1;rounded=0;orthogonalLoop=1;jettySize=auto;html=1;fontSize=12;startSize=8;endSize=8;" parent="1" source="1gKeE4FAqKJYVwFzVaU8-7" target="1gKeE4FAqKJYVwFzVaU8-86" edge="1">
          <mxGeometry relative="1" as="geometry" />
        </mxCell>
        <mxCell id="1gKeE4FAqKJYVwFzVaU8-89" value="" style="edgeStyle=none;curved=1;rounded=0;orthogonalLoop=1;jettySize=auto;html=1;fontSize=12;startSize=8;endSize=8;" parent="1" source="1gKeE4FAqKJYVwFzVaU8-7" target="1gKeE4FAqKJYVwFzVaU8-88" edge="1">
          <mxGeometry relative="1" as="geometry" />
        </mxCell>
        <mxCell id="1gKeE4FAqKJYVwFzVaU8-99" value="1" style="edgeStyle=none;curved=1;rounded=0;orthogonalLoop=1;jettySize=auto;html=1;entryX=1;entryY=0.5;entryDx=0;entryDy=0;fontSize=12;startSize=8;endSize=8;" parent="1" source="1gKeE4FAqKJYVwFzVaU8-7" target="1gKeE4FAqKJYVwFzVaU8-98" edge="1">
          <mxGeometry relative="1" as="geometry" />
        </mxCell>
        <mxCell id="sSlGZCRm7KlqZrSvEMAD-21" value="n&lt;div&gt;&lt;br&gt;&lt;/div&gt;" style="edgeLabel;html=1;align=center;verticalAlign=middle;resizable=0;points=[];fontSize=12;" vertex="1" connectable="0" parent="1gKeE4FAqKJYVwFzVaU8-99">
          <mxGeometry x="-0.0294" y="1" relative="1" as="geometry">
            <mxPoint as="offset" />
          </mxGeometry>
        </mxCell>
        <mxCell id="sSlGZCRm7KlqZrSvEMAD-25" style="edgeStyle=none;curved=1;rounded=0;orthogonalLoop=1;jettySize=auto;html=1;entryX=1;entryY=0;entryDx=0;entryDy=0;fontSize=12;startSize=8;endSize=8;" edge="1" parent="1" source="1gKeE4FAqKJYVwFzVaU8-7" target="1gKeE4FAqKJYVwFzVaU8-101">
          <mxGeometry relative="1" as="geometry" />
        </mxCell>
        <mxCell id="1gKeE4FAqKJYVwFzVaU8-7" value="AbschlussprÃ¼fungen" style="whiteSpace=wrap;html=1;" parent="1" vertex="1">
          <mxGeometry x="500.75" y="620" width="159" height="60" as="geometry" />
        </mxCell>
        <mxCell id="1gKeE4FAqKJYVwFzVaU8-17" value="FachName" style="ellipse;whiteSpace=wrap;html=1;" parent="1" vertex="1">
          <mxGeometry x="-115" y="125.5" width="79" height="43.5" as="geometry" />
        </mxCell>
        <mxCell id="1gKeE4FAqKJYVwFzVaU8-30" style="edgeStyle=none;curved=1;rounded=0;orthogonalLoop=1;jettySize=auto;html=1;fontSize=12;startSize=8;endSize=8;" parent="1" source="1gKeE4FAqKJYVwFzVaU8-23" edge="1">
          <mxGeometry relative="1" as="geometry">
            <mxPoint x="178" y="199.5" as="targetPoint" />
          </mxGeometry>
        </mxCell>
        <mxCell id="1gKeE4FAqKJYVwFzVaU8-23" value="hat Materialien" style="rhombus;whiteSpace=wrap;html=1;" parent="1" vertex="1">
          <mxGeometry x="184" y="159.5" width="96" height="80" as="geometry" />
        </mxCell>
        <mxCell id="1gKeE4FAqKJYVwFzVaU8-34" value="MaterialID (PS)" style="ellipse;whiteSpace=wrap;html=1;" parent="1" vertex="1">
          <mxGeometry x="400" y="80" width="83" height="50" as="geometry" />
        </mxCell>
        <mxCell id="1gKeE4FAqKJYVwFzVaU8-37" value="Thema" style="ellipse;whiteSpace=wrap;html=1;" parent="1" vertex="1">
          <mxGeometry x="285" y="91" width="48" height="48" as="geometry" />
        </mxCell>
        <mxCell id="1gKeE4FAqKJYVwFzVaU8-40" value="Notizen" style="ellipse;whiteSpace=wrap;html=1;" parent="1" vertex="1">
          <mxGeometry x="329" y="255" width="61" height="41" as="geometry" />
        </mxCell>
        <mxCell id="1gKeE4FAqKJYVwFzVaU8-42" value="Dateien" style="ellipse;whiteSpace=wrap;html=1;" parent="1" vertex="1">
          <mxGeometry x="425" y="255" width="66" height="48" as="geometry" />
        </mxCell>
        <mxCell id="1gKeE4FAqKJYVwFzVaU8-51" value="Zeitplan" style="ellipse;whiteSpace=wrap;html=1;" parent="1" vertex="1">
          <mxGeometry x="-157" y="534" width="64.5" height="49.5" as="geometry" />
        </mxCell>
        <mxCell id="1gKeE4FAqKJYVwFzVaU8-60" value="" style="edgeStyle=none;curved=1;rounded=0;orthogonalLoop=1;jettySize=auto;html=1;fontSize=12;startSize=8;endSize=8;exitX=0.686;exitY=0.983;exitDx=0;exitDy=0;exitPerimeter=0;" parent="1" source="1gKeE4FAqKJYVwFzVaU8-5" target="1gKeE4FAqKJYVwFzVaU8-62" edge="1">
          <mxGeometry relative="1" as="geometry">
            <mxPoint x="26.5" y="672.5" as="sourcePoint" />
            <Array as="points">
              <mxPoint x="58.5" y="690.5" />
            </Array>
          </mxGeometry>
        </mxCell>
        <mxCell id="1gKeE4FAqKJYVwFzVaU8-61" value="" style="edgeStyle=none;curved=1;rounded=0;orthogonalLoop=1;jettySize=auto;html=1;fontSize=12;startSize=8;endSize=8;" parent="1" target="1gKeE4FAqKJYVwFzVaU8-63" edge="1">
          <mxGeometry relative="1" as="geometry">
            <mxPoint x="-29.5" y="677.5" as="sourcePoint" />
          </mxGeometry>
        </mxCell>
        <mxCell id="1gKeE4FAqKJYVwFzVaU8-62" value="Fortschritt" style="ellipse;whiteSpace=wrap;html=1;" parent="1" vertex="1">
          <mxGeometry x="65.5" y="707" width="73" height="55.5" as="geometry" />
        </mxCell>
        <mxCell id="1gKeE4FAqKJYVwFzVaU8-63" value="Lernziele" style="ellipse;whiteSpace=wrap;html=1;" parent="1" vertex="1">
          <mxGeometry x="-73.5" y="734.5" width="66" height="58" as="geometry" />
        </mxCell>
        <mxCell id="1gKeE4FAqKJYVwFzVaU8-69" value="FachID (FS)" style="ellipse;whiteSpace=wrap;html=1;" parent="1" vertex="1">
          <mxGeometry x="5" y="509" width="60.5" height="48.5" as="geometry" />
        </mxCell>
        <mxCell id="1gKeE4FAqKJYVwFzVaU8-73" value="FachID (PS)" style="ellipse;whiteSpace=wrap;html=1;" parent="1" vertex="1">
          <mxGeometry x="-10" y="262.5" width="49" height="49" as="geometry" />
        </mxCell>
        <mxCell id="1gKeE4FAqKJYVwFzVaU8-77" value="PrÃ¼fungID (PS)" style="ellipse;whiteSpace=wrap;html=1;" parent="1" vertex="1">
          <mxGeometry x="500.75" y="515.5" width="72.5" height="42" as="geometry" />
        </mxCell>
        <mxCell id="1gKeE4FAqKJYVwFzVaU8-80" value="PrÃ¼fungstermin" style="ellipse;whiteSpace=wrap;html=1;" parent="1" vertex="1">
          <mxGeometry x="548" y="721.5" width="103" height="50.5" as="geometry" />
        </mxCell>
        <mxCell id="1gKeE4FAqKJYVwFzVaU8-84" value="PrÃ¼fungsdauer" style="ellipse;whiteSpace=wrap;html=1;" parent="1" vertex="1">
          <mxGeometry x="592" y="523" width="96.5" height="54" as="geometry" />
        </mxCell>
        <mxCell id="1gKeE4FAqKJYVwFzVaU8-86" value="PrÃ¼fungsinhalt" style="ellipse;whiteSpace=wrap;html=1;" parent="1" vertex="1">
          <mxGeometry x="724" y="561" width="101.5" height="55" as="geometry" />
        </mxCell>
        <mxCell id="1gKeE4FAqKJYVwFzVaU8-88" value="Vorbereitungsstatus" style="ellipse;whiteSpace=wrap;html=1;" parent="1" vertex="1">
          <mxGeometry x="678" y="664" width="119.5" height="80" as="geometry" />
        </mxCell>
        <mxCell id="1gKeE4FAqKJYVwFzVaU8-91" value="VorbereitungsID (PS)" style="ellipse;whiteSpace=wrap;html=1;" parent="1" vertex="1">
          <mxGeometry x="-16.5" y="799.5" width="113" height="60" as="geometry" />
        </mxCell>
        <mxCell id="1gKeE4FAqKJYVwFzVaU8-94" value="PrÃ¼fungstyp" style="ellipse;whiteSpace=wrap;html=1;aspect=fixed;" parent="1" vertex="1">
          <mxGeometry x="138.5" y="582" width="71" height="71" as="geometry" />
        </mxCell>
        <mxCell id="1gKeE4FAqKJYVwFzVaU8-98" value="bezieht sich auf" style="rhombus;whiteSpace=wrap;html=1;" parent="1" vertex="1">
          <mxGeometry x="308" y="503.5" width="80" height="80" as="geometry" />
        </mxCell>
        <mxCell id="1gKeE4FAqKJYVwFzVaU8-101" value="FachID (FS)" style="ellipse;whiteSpace=wrap;html=1;aspect=fixed;" parent="1" vertex="1">
          <mxGeometry x="450" y="706.25" width="56.25" height="56.25" as="geometry" />
        </mxCell>
        <mxCell id="1gKeE4FAqKJYVwFzVaU8-104" value="1" style="text;html=1;align=center;verticalAlign=middle;whiteSpace=wrap;rounded=0;" parent="1" vertex="1">
          <mxGeometry x="85" y="172" width="60" height="30" as="geometry" />
        </mxCell>
        <mxCell id="1gKeE4FAqKJYVwFzVaU8-105" value="n" style="text;html=1;align=center;verticalAlign=middle;whiteSpace=wrap;rounded=0;" parent="1" vertex="1">
          <mxGeometry x="298" y="172" width="60" height="30" as="geometry" />
        </mxCell>
        <mxCell id="sSlGZCRm7KlqZrSvEMAD-4" value="Themengebiete" style="ellipse;whiteSpace=wrap;html=1;aspect=fixed;" vertex="1" parent="1">
          <mxGeometry x="-198" y="627" width="88.5" height="88.5" as="geometry" />
        </mxCell>
        <mxCell id="sSlGZCRm7KlqZrSvEMAD-5" style="edgeStyle=none;curved=1;rounded=0;orthogonalLoop=1;jettySize=auto;html=1;fontSize=12;startSize=8;endSize=8;" edge="1" target="sSlGZCRm7KlqZrSvEMAD-4" parent="1">
          <mxGeometry relative="1" as="geometry">
            <mxPoint x="-253.5" y="646" as="targetPoint" />
            <mxPoint x="-68" y="652" as="sourcePoint" />
          </mxGeometry>
        </mxCell>
        <mxCell id="sSlGZCRm7KlqZrSvEMAD-10" value="1" style="edgeStyle=none;curved=1;rounded=0;orthogonalLoop=1;jettySize=auto;html=1;fontSize=12;startSize=8;endSize=8;" edge="1" parent="1" target="sSlGZCRm7KlqZrSvEMAD-11" source="1gKeE4FAqKJYVwFzVaU8-2">
          <mxGeometry relative="1" as="geometry">
            <mxPoint x="-55" y="279" as="sourcePoint" />
          </mxGeometry>
        </mxCell>
        <mxCell id="sSlGZCRm7KlqZrSvEMAD-23" value="1" style="edgeLabel;html=1;align=center;verticalAlign=middle;resizable=0;points=[];fontSize=12;" vertex="1" connectable="0" parent="sSlGZCRm7KlqZrSvEMAD-10">
          <mxGeometry x="-0.0124" y="-1" relative="1" as="geometry">
            <mxPoint y="1" as="offset" />
          </mxGeometry>
        </mxCell>
        <mxCell id="sSlGZCRm7KlqZrSvEMAD-11" value="wird vorbereitet" style="rhombus;whiteSpace=wrap;html=1;" vertex="1" parent="1">
          <mxGeometry x="-211" y="311.5" width="98" height="69" as="geometry" />
        </mxCell>
        <mxCell id="sSlGZCRm7KlqZrSvEMAD-31" style="edgeStyle=none;curved=1;rounded=0;orthogonalLoop=1;jettySize=auto;html=1;exitX=1;exitY=1;exitDx=0;exitDy=0;entryX=0.25;entryY=0;entryDx=0;entryDy=0;fontSize=12;startSize=8;endSize=8;" edge="1" parent="1" source="sSlGZCRm7KlqZrSvEMAD-27" target="1gKeE4FAqKJYVwFzVaU8-7">
          <mxGeometry relative="1" as="geometry" />
        </mxCell>
        <mxCell id="sSlGZCRm7KlqZrSvEMAD-33" value="n" style="edgeLabel;html=1;align=center;verticalAlign=middle;resizable=0;points=[];fontSize=12;" vertex="1" connectable="0" parent="sSlGZCRm7KlqZrSvEMAD-31">
          <mxGeometry x="-0.335" y="3" relative="1" as="geometry">
            <mxPoint x="1" as="offset" />
          </mxGeometry>
        </mxCell>
        <mxCell id="sSlGZCRm7KlqZrSvEMAD-27" value="hat PrÃ¼fung" style="rhombus;whiteSpace=wrap;html=1;" vertex="1" parent="1">
          <mxGeometry x="295" y="360" width="80" height="80" as="geometry" />
        </mxCell>
      </root>
    </mxGraphModel>
  </diagram>
</mxfile>
